<?xml version="1.0" encoding="UTF-8"?>
<svg width="18px" height="18px" viewBox="0 0 18 18" version="1.1" xmlns="http://www.w3.org/2000/svg" xmlns:xlink="http://www.w3.org/1999/xlink">
    <title>04转换</title>
    <g id="页面-1" stroke="none" stroke-width="1" fill="none" fill-rule="evenodd">
        <g id="3D显示" transform="translate(-1053.000000, -21.000000)" fill="#FFFFFF" fill-rule="nonzero">
            <g id="编组-9" transform="translate(1039.000000, 14.000000)">
                <g id="04转换" transform="translate(14.000000, 7.000000)">
                    <path d="M0.911152974,4.73339156 C0.911152974,4.73339156 2.55091407,2.20382165 5.14259579,0.846747184 C7.73606057,-0.510327278 10.9287034,-0.120079703 13.0222527,1.19568678 C15.1175851,2.51145327 15.8231374,3.6224224 15.8231374,3.6224224 L17.6277522,2.5940692 C17.6277522,2.5940692 18,2.40949021 18,2.84104576 L18,9.29856292 C18,9.29856292 18,9.87428636 17.5639235,9.66772087 C17.1987563,9.49546765 13.2349805,7.24098525 11.9869879,6.52992439 C11.3027291,6.2240609 11.9036747,5.9753162 11.9036747,5.9753162 L13.6462439,4.97949174 C13.6462439,4.97949174 12.6517622,3.73491232 11.1981482,3.07571705 C9.64349892,2.26534284 8.18631883,2.1686586 6.40297684,2.84279851 C5.23832845,3.28227226 3.86802771,4.40818097 2.88240969,6.06936101 L0.911152974,4.73339156 L0.911152974,4.73339156 Z M17.0888263,13.2669622 C17.0888263,13.2669622 15.4490808,15.7956609 12.8574094,17.1535912 C10.2657122,18.5106759 7.07129142,18.1195622 4.97774209,16.8037804 C2.88240969,15.4880293 2.1768729,14.3770447 2.1768729,14.3770447 L0.372258108,15.4054082 C0.372258108,15.4054082 0,15.5899872 0,15.1593029 L0,8.70089398 C0,8.70089398 0,8.12606745 0.436076447,8.33173604 C0.801253949,8.50401488 4.76501947,10.7584819 6.01300691,11.4695325 C6.69726574,11.775396 6.09632013,12.0250376 6.09632013,12.0250376 L4.35375094,13.0199908 C4.35375094,13.0199908 5.34823262,14.2645548 6.80184656,14.9237655 C8.35652172,15.7341397 9.81367597,15.8308239 11.597018,15.1566737 C12.7616663,14.7172 14.1319671,13.5921779 15.1175851,11.9300959 L17.0888263,13.2669622 L17.0888263,13.2669622 Z" id="形状"></path>
                </g>
            </g>
        </g>
    </g>
</svg>