<?xml version="1.0" standalone="no"?><!DOCTYPE svg PUBLIC "-//W3C//DTD SVG 1.1//EN" "http://www.w3.org/Graphics/SVG/1.1/DTD/svg11.dtd"><svg t="1733453528041" class="icon" viewBox="0 0 1024 1024" version="1.1" xmlns="http://www.w3.org/2000/svg" p-id="7002" xmlns:xlink="http://www.w3.org/1999/xlink" width="128" height="128"><path d="M211.38 747.2c-9.46 1.36-19.28 1.18-29.12-0.71-8.56-1.63-16.55-4.38-23.76-8.16-20.46-10.79-35.53-28.68-42.45-50.39-6.98-21.9-4.87-45.2 5.97-65.62 22.2-41.77 74.64-58.09 116.92-36.4 20.54 10.82 35.62 28.71 42.54 50.43 6.98 21.9 4.86 45.21-5.97 65.62-13.3 25.05-37.27 41.35-64.13 45.23z m-21.36-146.57c-19.33 2.78-37.14 14.36-46.9 32.72-7.83 14.76-9.36 31.6-4.32 47.42 5.03 15.77 16 28.78 30.89 36.63 5.1 2.68 10.86 4.64 17.09 5.83h0.01c27.4 5.27 54.55-7.72 67.59-32.27 7.83-14.76 9.37-31.61 4.33-47.43-5.03-15.78-16-28.78-30.89-36.62-12.04-6.18-25.24-8.09-37.8-6.28z" fill="#1296db" p-id="7003"></path><path d="M237.16 685.58l-0.9-0.17c-1.38-0.88-1.99-2.55-1.4-3.98 4.99-9.56 6.24-20.76 2.95-30.97-3.3-10.22-10.36-18.68-19.93-23.91-3.67-1.94-7.46-3.28-11.06-3.97-1.8-0.34-2.77-1.77-2.42-3.56 0.35-1.79 1.79-2.75 3.59-2.4 4.5 0.86 8.89 2.32 12.81 4.62 11.01 5.82 19.4 15.46 23.01 27.28 3.91 11.88 2.66 24.62-3.22 35.56-0.85 1.07-2.23 1.73-3.43 1.5z" fill="#1296db" p-id="7004"></path><path d="M238.61 689.94c-0.77 0.11-1.55 0.09-2.31-0.06l-2.44-0.78c-3.18-2.03-4.49-5.95-3.1-9.32 4.71-9.06 5.68-19.13 2.83-27.98-2.94-9.11-9.28-16.72-17.86-21.41-3.16-1.67-6.55-2.89-9.76-3.5-4.2-0.81-6.74-4.55-5.92-8.7 0.82-4.16 4.59-6.7 8.77-5.88 5.38 1.03 10.16 2.76 14.22 5.15 12.15 6.41 21.09 17.02 24.98 29.77 4.24 12.89 2.99 26.73-3.55 38.89-1.67 2.25-3.75 3.52-5.86 3.82zM373.56 408.61c-5.86 0.84-11.94 0.73-18.03-0.44-5.3-1.01-10.25-2.71-14.72-5.05-12.67-6.68-22-17.76-26.29-31.21-4.33-13.56-3.01-27.99 3.69-40.63 13.75-25.86 46.22-35.97 72.4-22.54 12.72 6.7 22.06 17.78 26.35 31.23 4.32 13.56 3.01 28-3.7 40.63-8.22 15.51-23.06 25.6-39.7 28.01z m-13.23-90.77c-11.97 1.72-23 8.9-29.04 20.26-4.85 9.14-5.8 19.57-2.68 29.37 3.11 9.77 9.91 17.82 19.13 22.69 3.16 1.66 6.72 2.87 10.59 3.61h0.01c16.97 3.26 33.78-4.78 41.85-19.99 4.85-9.14 5.8-19.58 2.68-29.37-3.12-9.77-9.91-17.82-19.13-22.68-7.45-3.83-15.63-5.01-23.41-3.89z" fill="#1296db" p-id="7005"></path><path d="M389.53 370.45l-0.56-0.11c-0.86-0.55-1.23-1.58-0.87-2.46 3.09-5.92 3.87-12.85 1.83-19.18s-6.42-11.57-12.34-14.81c-2.27-1.2-4.62-2.03-6.85-2.46-1.12-0.21-1.72-1.1-1.5-2.2 0.22-1.11 1.11-1.7 2.22-1.49 2.79 0.53 5.51 1.44 7.93 2.86 6.82 3.6 12.02 9.58 14.25 16.9 2.42 7.36 1.65 15.25-2 22.02-0.51 0.66-1.37 1.07-2.11 0.93z" fill="#1296db" p-id="7006"></path><path d="M390.43 373.15c-0.48 0.07-0.96 0.06-1.43-0.04l-1.51-0.48c-1.97-1.26-2.78-3.68-1.92-5.77 2.92-5.61 3.52-11.85 1.75-17.33-1.82-5.64-5.75-10.35-11.06-13.26-1.96-1.04-4.06-1.79-6.04-2.17-2.6-0.5-4.17-2.82-3.67-5.39 0.51-2.58 2.84-4.15 5.43-3.64 3.33 0.64 6.29 1.71 8.8 3.19 7.53 3.97 13.06 10.54 15.47 18.44 2.62 7.98 1.85 16.56-2.2 24.08-1.03 1.4-2.32 2.18-3.62 2.37zM495.13 783.35c-5.86 0.84-11.94 0.73-18.03-0.44-5.3-1.01-10.25-2.71-14.72-5.05-12.67-6.68-22-17.76-26.29-31.21-4.33-13.56-3.01-27.99 3.69-40.63 13.75-25.86 46.22-35.97 72.4-22.54 12.72 6.7 22.06 17.78 26.35 31.23 4.32 13.56 3.01 28-3.7 40.63-8.22 15.52-23.06 25.61-39.7 28.01z m-13.23-90.77c-11.97 1.72-23 8.9-29.04 20.26-4.85 9.14-5.8 19.57-2.68 29.37 3.11 9.77 9.91 17.82 19.13 22.69 3.16 1.66 6.72 2.87 10.59 3.61h0.01c16.97 3.26 33.78-4.78 41.85-19.99 4.85-9.14 5.8-19.58 2.68-29.37-3.12-9.77-9.91-17.82-19.13-22.68-7.45-3.82-15.63-5.01-23.41-3.89z" fill="#1296db" p-id="7007"></path><path d="M511.1 745.2l-0.56-0.11c-0.86-0.55-1.23-1.58-0.87-2.46 3.09-5.92 3.87-12.85 1.83-19.18s-6.42-11.57-12.34-14.81c-2.27-1.2-4.62-2.03-6.85-2.46-1.12-0.21-1.72-1.1-1.5-2.2s1.11-1.7 2.22-1.49c2.79 0.53 5.51 1.44 7.93 2.86 6.82 3.6 12.02 9.58 14.25 16.9 2.42 7.36 1.65 15.25-2 22.02-0.52 0.66-1.37 1.07-2.11 0.93z" fill="#1296db" p-id="7008"></path><path d="M512 747.89c-0.48 0.07-0.96 0.06-1.43-0.04l-1.51-0.48c-1.97-1.26-2.78-3.68-1.92-5.77 2.92-5.61 3.52-11.85 1.75-17.33-1.82-5.64-5.75-10.35-11.06-13.26-1.96-1.04-4.06-1.79-6.04-2.17-2.6-0.5-4.17-2.82-3.67-5.39 0.51-2.58 2.84-4.15 5.43-3.64 3.33 0.64 6.29 1.71 8.8 3.19 7.53 3.97 13.06 10.54 15.47 18.44 2.62 7.98 1.85 16.56-2.2 24.08-1.03 1.4-2.32 2.19-3.62 2.37z" fill="#1296db" p-id="7009"></path><path d="M309.01 881.45c-5.86 0.84-11.94 0.73-18.03-0.44-5.3-1.01-10.25-2.71-14.72-5.05-12.67-6.68-22-17.76-26.29-31.21-4.33-13.56-3.01-27.99 3.69-40.63 13.75-25.86 46.22-35.97 72.4-22.54 12.72 6.7 22.06 17.78 26.35 31.23 4.32 13.56 3.01 28-3.7 40.63-8.22 15.51-23.06 25.61-39.7 28.01z m-13.23-90.77c-11.97 1.72-23 8.9-29.04 20.26-4.85 9.14-5.8 19.57-2.68 29.37 3.11 9.77 9.91 17.82 19.13 22.69 3.16 1.66 6.72 2.87 10.59 3.61h0.01c16.97 3.26 33.78-4.78 41.85-19.99 4.85-9.14 5.8-19.58 2.68-29.37-3.12-9.77-9.91-17.82-19.13-22.68-7.45-3.83-15.63-5.01-23.41-3.89z" fill="#1296db" p-id="7010"></path><path d="M338.32 817.25c-3.11-9.77-9.91-17.82-19.13-22.68-7.45-3.83-15.63-5.01-23.41-3.89-11.97 1.72-23 8.9-29.04 20.26-4.85 9.14-5.8 19.57-2.68 29.37 3.11 9.77 9.9 17.82 19.13 22.68 3.16 1.66 6.73 2.88 10.59 3.61 16.97 3.26 33.79-4.78 41.86-19.98 4.85-9.14 5.8-19.57 2.68-29.37z m-8.82 26.38c-1.04 1.39-2.32 2.18-3.63 2.36-0.48 0.07-0.96 0.06-1.43-0.04l-1.51-0.48c-1.97-1.26-2.78-3.68-1.93-5.77 2.92-5.61 3.52-11.85 1.75-17.33-1.82-5.64-5.75-10.35-11.06-13.26-1.96-1.04-4.05-1.79-6.04-2.17-2.6-0.5-4.17-2.82-3.67-5.39 0.51-2.57 2.84-4.15 5.43-3.64 3.33 0.64 6.29 1.71 8.8 3.19 7.53 3.97 13.06 10.54 15.47 18.44 2.65 7.99 1.87 16.56-2.18 24.09z" fill="#1296db" opacity=".28" p-id="7011"></path><path d="M271.01 631.48c-3.36 0-6.58-1.88-8.14-5.09-2.17-4.47-0.29-9.85 4.2-12.02L363 568.15c4.49-2.15 9.89-0.28 12.06 4.19 2.17 4.47 0.29 9.85-4.2 12.02l-95.93 46.22c-1.26 0.61-2.6 0.9-3.92 0.9zM476.47 688.12c-4.52 0-8.42-3.38-8.96-7.96l-5.97-50.81c-0.58-4.93 2.97-9.4 7.92-9.98 4.97-0.68 9.44 2.96 10.02 7.89l5.97 50.81c0.58 4.93-2.97 9.4-7.92 9.98-0.35 0.05-0.71 0.07-1.06 0.07z" fill="#1296db" p-id="7012"></path><path d="M511.18 530.52c-3.24 0-6.39-1.65-8.17-4.62-2.69-4.49-1.22-10.3 3.29-12.98l106.08-63.11c4.51-2.7 10.34-1.22 13.03 3.27s1.22 10.3-3.29 12.98l-106.08 63.11a9.35 9.35 0 0 1-4.86 1.35zM418.37 486.48c-3.74 0-7.29-2.22-8.8-5.89l-29.69-72.26c-1.99-4.83 0.34-10.36 5.2-12.34 4.86-2 10.41 0.32 12.4 5.18l29.69 72.26c1.99 4.83-0.34 10.36-5.2 12.34-1.18 0.49-2.4 0.71-3.6 0.71z" fill="#1296db" p-id="7013"></path><path d="M725.93 355.63c-1.88 0-3.78-0.59-5.4-1.8-4-2.98-4.81-8.61-1.83-12.6l24.14-32.18c2.98-3.97 8.64-4.8 12.64-1.82 4 2.98 4.81 8.61 1.83 12.6l-24.14 32.18a9.015 9.015 0 0 1-7.24 3.62z" fill="#1296db" p-id="7014"></path><path d="M687.27 553.01c-4.92 0-9.08-3.78-9.47-8.74l-4.75-61.05c-0.41-5.21 3.51-9.77 8.74-10.18 5.24-0.47 9.81 3.5 10.21 8.71l4.75 61.05c0.41 5.21-3.51 9.77-8.74 10.18-0.25 0.02-0.49 0.03-0.74 0.03z" fill="#1296db" p-id="7015"></path><path d="M272.92 798.3c-3.16 0-6.23-1.66-7.89-4.6l-32.02-56.82c-2.44-4.34-0.9-9.81 3.46-12.26 4.35-2.44 9.86-0.89 12.3 3.45l32.02 56.82c2.44 4.34 0.9 9.81-3.46 12.26a8.993 8.993 0 0 1-4.41 1.15z" fill="#1296db" p-id="7016"></path><path d="M763.11 613.72c-5.97-19.24-19.2-34.96-37.28-44.36-18.09-9.41-38.68-11.23-57.96-5.2-40.09 12.42-62.7 55.02-50.45 94.99 6.06 19.01 19.4 34.82 37.5 44.37 6.61 3.36 13.4 5.67 21.17 7.17 12.21 2.31 24.68 1.62 37.05-2.11 19.17-6.03 35.12-19.29 44.75-37.25 9.49-17.91 11.36-38.39 5.22-57.61z m-17.55 50.74a6.713 6.713 0 0 1-2.16 3.63c-1.08 0.93-2.42 1.51-3.92 1.73-1.09 0.16-2.26 0.13-3.49-0.11l-2.12-0.41-0.87-0.55c-3.88-2.48-5.46-7.25-3.76-11.35 11.56-22.13 3.16-48.87-18.52-60.04-4.02-2.12-8.16-3.59-12.35-4.39-2.48-0.47-4.56-1.82-5.89-3.76-1.32-1.94-1.79-4.37-1.31-6.82 0.48-2.44 1.82-4.51 3.77-5.83 1.97-1.31 4.41-1.79 6.88-1.31 6.53 1.25 12.34 3.35 17.29 6.25 14.56 7.5 25.47 20.45 30.46 36.36 4.87 15.59 3.45 32.09-4.01 46.6z" fill="#1296db" opacity=".28" p-id="7017"></path><path d="M737 664.47z" fill="#1296db" opacity=".28" p-id="7018"></path><path d="M705.24 739.72c-11.62 1.67-23.22 1.41-34.7-0.78l-0.02-0.01c-10.39-2-19.89-5.24-29.07-9.9-25.03-13.2-43.34-34.94-51.76-61.33-16.92-55.21 14.28-113.9 69.5-131.01 26.65-8.37 55.14-5.82 80.12 7.16 24.98 12.98 43.26 34.73 51.49 61.25 8.45 26.51 5.88 54.83-7.28 79.65-13.25 24.71-35.2 42.91-61.82 51.3-5.48 1.66-10.97 2.88-16.46 3.67z m-29.16-29.04c12.21 2.31 24.68 1.62 37.05-2.12 19.17-6.03 35.12-19.29 44.75-37.25 9.49-17.89 11.36-38.37 5.23-57.6-5.97-19.24-19.2-34.96-37.28-44.36-18.09-9.41-38.68-11.23-57.96-5.2-40.08 12.42-62.69 55.03-50.45 94.99 6.06 19.01 19.4 34.82 37.5 44.37 6.61 3.36 13.39 5.67 21.16 7.17z" fill="#1296db" p-id="7019"></path><path d="M683.54 492.68c-9.46 1.36-19.28 1.18-29.12-0.71-8.56-1.63-16.55-4.38-23.76-8.16-20.46-10.79-35.53-28.68-42.45-50.39-6.98-21.9-4.86-45.2 5.97-65.62 22.2-41.77 74.64-58.09 116.92-36.4 20.54 10.82 35.62 28.71 42.54 50.43 6.98 21.9 4.86 45.21-5.97 65.62-13.3 25.05-37.26 41.36-64.13 45.23z m-21.36-146.57c-19.33 2.78-37.14 14.36-46.9 32.72-7.83 14.76-9.36 31.6-4.32 47.42 5.03 15.77 16 28.78 30.89 36.63 5.1 2.68 10.86 4.64 17.09 5.83h0.01c27.4 5.27 54.55-7.72 67.59-32.27 7.83-14.76 9.37-31.61 4.33-47.43-5.03-15.78-16-28.78-30.89-36.62-12.03-6.18-25.24-8.08-37.8-6.28z" fill="#1296db" p-id="7020"></path><path d="M709.33 431.07l-0.9-0.17c-1.38-0.88-1.99-2.55-1.4-3.98 4.99-9.56 6.24-20.76 2.95-30.97-3.3-10.22-10.36-18.68-19.93-23.91-3.67-1.94-7.46-3.28-11.06-3.97-1.8-0.34-2.77-1.77-2.42-3.56 0.35-1.79 1.79-2.75 3.59-2.4 4.5 0.86 8.89 2.32 12.81 4.62 11.01 5.82 19.4 15.46 23.01 27.28 3.91 11.88 2.66 24.62-3.22 35.56-0.86 1.06-2.23 1.73-3.43 1.5z" fill="#1296db" p-id="7021"></path><path d="M710.78 435.43c-0.77 0.11-1.55 0.09-2.31-0.06l-2.44-0.78c-3.18-2.03-4.49-5.95-3.1-9.32 4.71-9.06 5.68-19.13 2.83-27.98-2.94-9.11-9.28-16.72-17.86-21.41-3.16-1.67-6.55-2.89-9.76-3.5-4.2-0.81-6.74-4.55-5.92-8.7 0.82-4.16 4.59-6.7 8.77-5.88 5.38 1.03 10.16 2.76 14.22 5.15 12.15 6.41 21.09 17.02 24.98 29.77 4.24 12.89 2.99 26.73-3.55 38.89-1.68 2.25-3.76 3.51-5.86 3.82z" fill="#1296db" p-id="7022"></path><path d="M879.41 223.86c-5.97-19.24-19.2-34.96-37.28-44.36-18.09-9.41-38.68-11.23-57.96-5.2-40.09 12.42-62.7 55.02-50.45 94.99 6.06 19.01 19.4 34.82 37.5 44.37 6.61 3.36 13.4 5.67 21.17 7.17 12.21 2.31 24.68 1.62 37.05-2.11 19.17-6.03 35.12-19.29 44.75-37.25 9.49-17.91 11.36-38.38 5.22-57.61z m-17.55 50.74a6.713 6.713 0 0 1-2.16 3.63c-1.08 0.93-2.42 1.51-3.92 1.73-1.09 0.16-2.26 0.13-3.49-0.11l-2.12-0.41-0.87-0.55c-3.88-2.48-5.46-7.25-3.76-11.35 11.56-22.13 3.16-48.87-18.52-60.04-4.02-2.12-8.16-3.59-12.35-4.39-2.48-0.47-4.56-1.82-5.89-3.76-1.32-1.94-1.79-4.37-1.31-6.82 0.48-2.44 1.82-4.51 3.77-5.83 1.97-1.31 4.41-1.79 6.88-1.31 6.53 1.25 12.34 3.35 17.29 6.25 14.56 7.5 25.47 20.45 30.46 36.36 4.88 15.59 3.45 32.1-4.01 46.6z" fill="#1296db" opacity=".28" p-id="7023"></path><path d="M853.3 274.61v0.01-0.01z" fill="#1296db" opacity=".28" p-id="7024"></path><path d="M821.54 349.87c-11.62 1.67-23.22 1.41-34.7-0.78l-0.02-0.01c-10.39-2-19.89-5.24-29.07-9.9-25.03-13.2-43.34-34.94-51.76-61.33-16.92-55.21 14.28-113.9 69.5-131.01 26.65-8.37 55.14-5.82 80.12 7.16 24.98 12.98 43.26 34.73 51.49 61.25 8.45 26.51 5.88 54.83-7.28 79.65-13.25 24.71-35.2 42.91-61.82 51.3-5.48 1.65-10.97 2.88-16.46 3.67z m-29.15-29.05c12.21 2.31 24.68 1.62 37.05-2.12 19.17-6.03 35.12-19.29 44.75-37.25 9.49-17.89 11.36-38.37 5.23-57.6-5.97-19.24-19.2-34.96-37.28-44.36-18.09-9.41-38.68-11.23-57.96-5.2-40.08 12.42-62.69 55.03-50.45 94.99 6.06 19.01 19.4 34.82 37.5 44.37 6.6 3.37 13.39 5.67 21.16 7.17z" fill="#1296db" p-id="7025"></path><path d="M473.12 498.23c-14.87-7.74-31.85-9.24-47.8-4.23-15.9 5.01-29.02 15.91-36.96 30.69-15.85 30.36-3.84 68.11 26.83 84.04 5.23 2.74 10.83 4.65 17.18 5.88 9.9 1.89 20.44 1.31 30.48-1.74 15.77-4.96 28.89-15.87 36.82-30.65 15.84-30.33 3.95-68.06-26.55-83.99z m16.21 78.72c-0.79 2.13-2.88 3.66-5.29 4.01-0.77 0.11-1.58 0.1-2.38-0.05l-1.75-0.34-0.71-0.45c-3.19-2.04-4.49-5.97-3.09-9.34 9.51-18.2 2.6-40.19-15.24-49.38-3.3-1.75-6.7-2.95-10.16-3.62-2.04-0.4-3.76-1.49-4.85-3.1-1.08-1.6-1.46-3.59-1.07-5.6 0.8-4.14 4.56-6.69 8.75-5.88 5.37 1.03 10.16 2.76 14.23 5.15 11.98 6.17 20.96 16.83 25.06 29.9 4.04 12.94 2.8 26.68-3.5 38.7z" fill="#1296db" opacity=".28" p-id="7026"></path><path d="M456.53 638.44c-9.65 1.39-19.38 1.2-28.73-0.59l-0.01-0.01c-8.68-1.67-16.45-4.34-23.74-8.16-42.23-21.93-58.77-73.98-36.83-115.99 10.95-20.41 29-35.37 50.89-42.27 22.09-6.97 45.57-4.88 66.13 5.84 42.08 21.97 58.47 73.98 36.55 115.94-10.94 20.4-28.99 35.37-50.89 42.27a89.365 89.365 0 0 1-13.37 2.97z m-24.17-23.84c9.9 1.89 20.44 1.31 30.48-1.74 15.77-4.96 28.89-15.87 36.82-30.65 15.84-30.33 3.96-68.05-26.55-83.99-14.86-7.74-31.84-9.24-47.8-4.23-15.89 5.01-29.02 15.91-36.95 30.69-15.85 30.35-3.84 68.11 26.83 84.03 5.22 2.76 10.83 4.67 17.17 5.89z" fill="#1296db" p-id="7027"></path></svg>