<?xml version="1.0" standalone="no"?><!DOCTYPE svg PUBLIC "-//W3C//DTD SVG 1.1//EN" "http://www.w3.org/Graphics/SVG/1.1/DTD/svg11.dtd"><svg t="1732799934025" class="icon" viewBox="0 0 1024 1024" version="1.1" xmlns="http://www.w3.org/2000/svg" p-id="5334" xmlns:xlink="http://www.w3.org/1999/xlink" width="128" height="128"><path d="M967.68 478.50496A12.58496 12.58496 0 0 0 955.08992 465.92H268.58496A12.59008 12.59008 0 0 0 256 478.50496v46.50496A12.59008 12.59008 0 0 0 268.58496 537.6h686.50496a12.5952 12.5952 0 0 0 12.59008-12.59008v-46.50496zM967.68 155.94496C967.68 148.992 962.048 143.36 955.10016 143.36H268.57984A12.58496 12.58496 0 0 0 256 155.94496v46.50496C256 209.40288 261.632 215.04 268.57984 215.04h686.52032A12.58496 12.58496 0 0 0 967.68 202.45504v-46.51008zM967.68 795.94496a12.59008 12.59008 0 0 0-12.59008-12.58496H268.58496A12.58496 12.58496 0 0 0 256 795.94496v46.51008A12.59008 12.59008 0 0 0 268.58496 855.04h686.50496a12.59008 12.59008 0 0 0 12.59008-12.58496v-46.51008zM148.48 155.94496A12.59008 12.59008 0 0 0 135.89504 143.36h-46.50496A12.59008 12.59008 0 0 0 76.8 155.94496v46.50496A12.59008 12.59008 0 0 0 89.38496 215.04h46.50496A12.59008 12.59008 0 0 0 148.48 202.45504v-46.51008zM148.48 795.94496A12.59008 12.59008 0 0 0 135.89504 783.36h-46.50496a12.58496 12.58496 0 0 0-12.58496 12.58496v46.51008A12.59008 12.59008 0 0 0 89.39008 855.04h46.50496A12.58496 12.58496 0 0 0 148.48 842.45504v-46.51008zM148.48 478.50496A12.59008 12.59008 0 0 0 135.89504 465.92h-46.50496A12.59008 12.59008 0 0 0 76.8 478.50496v46.50496A12.59008 12.59008 0 0 0 89.38496 537.6h46.50496a12.58496 12.58496 0 0 0 12.58496-12.59008v-46.50496z" p-id="5335" fill="#02ABB9"></path></svg>