<?xml version="1.0" encoding="UTF-8"?>
<svg width="40px" height="40px" viewBox="0 0 40 40" version="1.1" xmlns="http://www.w3.org/2000/svg" xmlns:xlink="http://www.w3.org/1999/xlink">
    <title>编组 5</title>
    <g id="页面-1" stroke="none" stroke-width="1" fill="none" fill-rule="evenodd">
        <g id="分子编辑器备份-5" transform="translate(-1368.000000, -9.000000)">
            <g id="编组-5" transform="translate(1368.000000, 9.000000)">
                <circle id="椭圆形" fill="#DAF3F7" cx="20" cy="20" r="20"></circle>
                <g id="编组" transform="translate(13.000000, 10.000000)" fill="#02ABB9" fill-rule="nonzero">
                    <polygon id="路径" points="8.4 21 4.9 21 4.9 17.3793103 8.4 17.3793103"></polygon>
                    <path d="M13.1105194,8.25310469 C12.5356841,9.12894383 11.7579134,9.89621476 10.7991548,10.5331655 C9.93066753,11.110426 9.32116145,11.6847436 8.9875585,12.2400602 C8.5155905,13.0234532 8.49167082,13.2594628 8.49167085,13.2988083 L8.49167085,14.4827586 L5.24953879,14.4827586 L5.24953879,12.9559579 C5.24953879,12.1993711 5.47836597,11.4567311 5.92959513,10.7487665 C6.36765574,10.0631296 7.11679922,9.31818654 8.15635026,8.53434567 L8.16207569,8.53012324 C8.84073247,8.03795154 9.309965,7.52876206 9.55666835,7.0168216 C9.80547099,6.50072267 9.93162179,5.99946628 9.93162176,5.52699934 C9.93162176,4.6437389 9.70285819,4.00819572 9.23235335,3.58415904 C8.75599584,3.15634774 8.05392832,2.93921131 7.1460626,2.93921131 C6.22929065,2.93921131 5.48116505,3.22320327 4.85887217,3.80743725 C4.25413732,4.37682866 3.94731675,5.3400598 3.94731675,6.66994067 L3.94731675,7.05380002 L0,7.05380002 L0.0169855188,6.65362664 C0.111964401,4.41387112 0.855318774,2.72245873 2.22643705,1.62634823 C3.57395376,0.547255517 5.22924525,0 7.1460626,0 C9.24297722,0 10.9211069,0.489292745 12.1337574,1.45437922 C13.3722361,2.44166557 14,3.73488782 14,5.29841109 C14,6.36138168 13.7007498,7.35551353 13.1105194,8.25310469 L13.1105194,8.25310469 Z" id="路径"></path>
                </g>
            </g>
        </g>
    </g>
</svg>